# xmcd
#
# Track frame offsets:
#	150
#	40030
#	79592
#	116906
#	152176
#	211955
#	263200
#
# Disc length: 4241 seconds
#
# Revision: 0
# Processed by: cddbd v1.5.2PL0 Copyright (c) Steve Scherf et al.
# Submitted via: EasyCDDAExtractor 15.2.0.1
#
DISCID=58108f07
DTITLE=U-Turn
DYEAR=2011
DGENRE=World
TTITLE0=Malatchong
TTITLE1=Blow
TTITLE2=Chèlbè
TTITLE3=My Question
TTITLE4=Sa Pa Bon
TTITLE5=Cherie Mwen Pare
TTITLE6=Chèlbe Live
EXTD=
EXTT0=
EXTT1=
EXTT2=
EXTT3=
EXTT4=
EXTT5=
EXTT6=
PLAYORDER=
